:SAMPLES-PER-SECOND 30
:FULLY-SPECIFIED
:DEGREES
47
root  34.79983412 36.50810061 -14.93674151 8.087225914 -2.806165457 3.598344088
lowerback  -7.574029446 -0.6817049384 -0.2554471493
upperback  -3.867599964 -0.4935089946 -2.812750101
thorax  0.2295379937 -0.1103060022 -2.793179989
lowerneck  -14.03470039 -1.376520038 -1.968279958
upperneck  17.52090073 -2.31269002 6.349979877
head  7.825449944 -0.4454900026 2.199939966
lclavicle  0 -4.497500157e-015 -2.743230041e-014
lhumerus  -46.86149979 26.25499916 68.11119843
lradius  -0.02304728888 -6.507048965e-006 31.20739937
lwrist  4.824992743e-007 -3.790274832e-007 -25.1439991
lhand  -4.410698426e-031 -36.81430054 -10.71730042
lfingers  90 7.125020027 -90
lthumb  94.78479881 -25.5553448 100.9811672
rclavicle  0 -4.497500157e-015 -2.743230041e-014
rhumerus  -58.44990158 -25.99500084 -53.95360184
rradius  -5.16745672e-007 2.214343908e-008 64.9509964
rwrist  -7.499573258e-005 0.03438235447 -170.4089966
rhand  -1.766349491e-031 -1.710389972 -7.957330227
rfingers  -90 -7.125020027 -90
rthumb  -86.52121851 -7.778498632 -65.81232449
rfemur  -11.86758232 16.10468674 13.54232883
rtibia  -1.494086623 -0.2651849985 21.35560989
rfoot  -0.2536516488 -20.58849525 -38.01625061
rtoes  4.056367035 19.60084299 -101.9362711
lfemur  -8.009057999 -17.79243279 -20.03287697
ltibia  2.428153276 -0.5654888153 14.93378735
lfoot  0.8098912835 -24.51124763 36.79503632
ltoes  -8.667488068 -18.09399242 -116.1432539
48
root  34.80075326 36.50684507 -14.9390889 8.085811615 -2.869094133 3.589558601
lowerback  -7.593899727 -0.692252934 -0.278018117
upperback  -3.875020027 -0.504685998 -2.810830116
thorax  0.232614994 -0.1150960028 -2.779500008
lowerneck  -13.93939972 -1.627410054 -2.172600031
upperneck  17.54240036 -2.628359795 6.431069851
head  7.833710194 -0.6008189917 2.227089882
lclavicle  0 -4.497500157e-015 -2.743230041e-014
lhumerus  -46.89789963 26.2397995 68.10389709
lradius  -0.02348108031 -6.507048965e-006 31.22053719
lwrist  4.824992743e-007 -3.790274832e-007 -25.09259987
lhand  -4.411978144e-031 -36.83649826 -10.7177
lfingers  90 7.125020027 -90
lthumb  94.79534592 -25.5550236 101.005019
rclavicle  0 -4.497500157e-015 -2.743230041e-014
rhumerus  -58.67549896 -25.72870064 -53.67779922
rradius  -5.16745672e-007 2.214343908e-008 66.36109924
rwrist  -7.499573258e-005 0.03438235447 -170.7140045
rhand  -1.766315781e-031 -1.673370004 -8.140789986
rfingers  -90 -7.125020027 -90
rthumb  -86.59039293 -7.61327723 -65.78646979
rfemur  -11.89104271 16.12676048 13.54460716
rtibia  -1.488656998 -0.269454509 21.37545395
rfoot  -0.2487446517 -20.61996078 -37.96060562
rtoes  4.06279598 19.59956164 -101.955436
lfemur  -8.00131321 -17.79310799 -20.03074455
ltibia  2.41909647 -0.587648809 14.93844223
lfoot  0.8097092509 -24.4629879 36.83654022
ltoes  -8.645678462 -18.10415184 -116.07305
49
root  34.80011046 36.50558352 -14.94102027 8.077316284 -2.921026707 3.578848839
lowerback  -7.606490135 -0.7049649954 -0.2823257744
upperback  -3.888950109 -0.5192639828 -2.818929911
thorax  0.2244500071 -0.121633999 -2.78666997
lowerneck  -13.8689003 -1.835839987 -2.284790039
upperneck  17.5739994 -2.895140171 6.451290131
head  7.846129894 -0.7323300838 2.224030018
lclavicle  0 -4.497500157e-015 -2.743230041e-014
lhumerus  -46.94329834 26.21800041 68.09249878
lradius  -0.02391585521 -6.507048965e-006 31.2258873
lwrist  4.824992743e-007 -3.790274832e-007 -25.07570076
lhand  -4.410243308e-031 -36.8064003 -10.72809982
lfingers  90 7.125020027 -90
lthumb  94.78340253 -25.56628479 100.9737506
rclavicle  0 -4.497500157e-015 -2.743230041e-014
rhumerus  -58.94110107 -25.54220009 -53.3132019
rradius  -5.16745672e-007 2.214343908e-008 67.76029968
rwrist  -7.499573258e-005 0.03438235447 -171.4340057
rhand  -1.7661092e-031 -1.425629973 -8.007570267
rfingers  -90 -7.125020027 -90
rthumb  -86.48991654 -7.749001757 -65.53800254
rfemur  -11.89833546 16.19178009 13.54577923
rtibia  -1.481784463 -0.2485527843 21.38509941
rfoot  -0.2428828031 -20.59578896 -37.95143509
rtoes  4.067129194 19.59869679 -101.9683541
lfemur  -7.968708992 -17.82194138 -20.0280571
ltibia  2.422610283 -0.6035631895 14.91760159
lfoot  0.8096722364 -24.41333389 36.91523743
ltoes  -8.658636908 -18.09811937 -116.1147579
50
root  34.80068417 36.50496776 -14.94058624 8.068066597 -2.969974279 3.579129457
lowerback  -7.604729652 -0.7399399281 -0.3043109775
upperback  -3.900460005 -0.562541008 -2.830729961
thorax  0.2097049952 -0.1423629969 -2.789760113
lowerneck  -13.80650043 -2.06043005 -2.369669914
upperneck  17.61599922 -3.189610004 6.466859818
head  7.864759922 -0.8749629259 2.211930037
lclavicle  0 -4.497500157e-015 -2.743230041e-014
lhumerus  -46.9822998 26.22430038 68.01979828
lradius  -0.02435130812 -6.507048965e-006 31.23308754
lwrist  4.824992743e-007 -3.790274832e-007 -25.06760025
lhand  -0 -36.78749847 -10.70429993
lfingers  90 7.125020027 -90
lthumb  94.76952115 -25.54365234 100.9513555
rclavicle  0 -4.497500157e-015 -2.743230041e-014
rhumerus  -59.1473999 -25.32250023 -53.02909851
rradius  -5.16745672e-007 2.214343908e-008 69.24250031
rwrist  -7.499573258e-005 0.03438235447 -171.8760071
rhand  -1.766222577e-031 -1.566460013 -7.760399818
rfingers  -90 -7.125020027 -90
rthumb  -86.41292789 -7.96608764 -65.66095393
rfemur  -11.88174629 16.24734879 13.53518963
rtibia  -1.473287821 -0.2552137077 21.36802101
rfoot  -0.244674325 -20.61457634 -37.97077179
rtoes  4.059599355 19.60019903 -101.9459066
lfemur  -7.981786251 -17.79736519 -20.02466202
ltibia  2.400685787 -0.6161879301 14.9478693
lfoot  0.8097108006 -24.40591812 36.90762329
ltoes  -8.637597211 -18.10790813 -116.0470466
51
root  34.80066615 36.50787534 -14.94917081 8.095173836 -3.07493639 3.560134888
lowerback  -7.644209862 -0.7499529719 -0.3018977642
upperback  -3.89173007 -0.573153019 -2.864820004
thorax  0.2395370007 -0.1471730024 -2.827719927
lowerneck  -13.66479969 -2.36281991 -2.650249958
upperneck  17.56150055 -3.582099915 6.670470238
head  7.849510193 -1.062459946 2.283550024
lclavicle  0 -4.497500157e-015 -2.743230041e-014
lhumerus  -47.02170181 26.22389984 67.9489975
lradius  -0.02478714287 -6.507048965e-006 31.22089958
lwrist  4.824992743e-007 -3.790274832e-007 -25.06559944
lhand  -4.412514729e-031 -36.84579849 -10.66149998
lfingers  90 7.125020027 -90
lthumb  94.78783405 -25.49959787 101.0098576
rclavicle  0 -4.497500157e-015 -2.743230041e-014
rhumerus  -59.39300156 -25.14019966 -52.69720078
rradius  -5.16745672e-007 2.214343908e-008 70.67410278
rwrist  -7.499573258e-005 0.03438235447 -172.0160065
rhand  -1.765730159e-031 -0.7895280123 -8.124389648
rfingers  -90 -7.125020027 -90
rthumb  -86.42189644 -7.680348469 -64.92584438
rfemur  -11.94883347 16.26416588 13.53309155
rtibia  -1.468322515 -0.2927279472 21.37318993
rfoot  -0.2429561764 -20.68603325 -37.92082977
rtoes  4.081405523 19.59584058 -102.0109183
lfemur  -8.172760963 -17.83542824 -19.92396736
ltibia  2.267568588 -0.6765299439 15.17565918
lfoot  0.8216475248 -24.37528038 36.9717598
ltoes  -8.633167627 -18.1099652 -116.0327955
52
root  34.7985936 36.5071124 -14.94689851 8.04650116 -3.126823902 3.582943201
lowerback  -7.680180073 -0.7761210203 -0.2607542872
upperback  -3.91079998 -0.6069549918 -2.884730101
thorax  0.2372370064 -0.1635130048 -2.874530077
lowerneck  -13.52670002 -2.669569969 -2.847419977
upperneck  17.49869919 -3.985740423 6.79776001
head  7.831540108 -1.258020043 2.31456995
lclavicle  0 -4.497500157e-015 -2.743230041e-014
lhumerus  -47.04240036 26.20669937 67.87729645
lradius  -0.02522305027 -6.507048965e-006 31.22850037
lwrist  4.824992743e-007 -3.790274832e-007 -25.00720024
lhand  -4.408815821e-031 -36.78160095 -10.64990044
lfingers  90 7.125020027 -90
lthumb  94.75529366 -25.49032005 100.9401268
rclavicle  0 -4.497500157e-015 -2.743230041e-014
rhumerus  -59.68420029 -25.00139999 -52.41410065
rradius  -5.16745672e-007 2.214343908e-008 72.06230164
rwrist  -7.499573258e-005 0.03438235447 -172.4579926
rhand  -1.765770877e-031 -0.8801969886 -7.945320129
rfingers  -90 -7.125020027 -90
rthumb  -86.36234611 -7.837220148 -65.0037395
rfemur  -11.87587833 16.24593544 13.515378
rtibia  -1.468667269 -0.3246514499 21.34504509
rfoot  -0.2306244969 -20.74950409 -37.88240433
rtoes  4.104057644 19.59128713 -102.0784669
lfemur  -8.025774956 -17.76002693 -20.02022934
ltibia  2.351069212 -0.6649936438 15.05628014
lfoot  0.8314917088 -24.37185097 36.96924591
ltoes  -8.672623921 -18.09159535 -116.1597915
